<svg class="icon" viewBox="0 0 1024 1024" xmlns="http://www.w3.org/2000/svg" width="200" height="200"><defs><style/></defs><path d="M562.88 554.56c0 28.032-22.784 50.816-50.88 50.816s-50.816-22.72-50.816-50.816V113.792c0-28.032 22.784-50.816 50.816-50.816s50.88 22.784 50.88 50.816V554.56z" fill="#fff"/><path d="M86.016 535.36c0-152.064 80.32-285.76 200.512-360.64 23.488-14.976 54.912-7.808 69.76 16 14.848 23.872 7.68 55.104-16.064 69.952-91.584 57.536-152.448 158.656-152.448 274.56C188.16 714.24 332.928 859.072 512 859.456c179.072-.448 323.776-145.28 324.096-324.224 0-118.656-64-221.952-159.296-278.656-24.192-14.336-32.128-45.568-17.856-69.76 14.4-24.128 45.632-32.064 69.824-17.792 124.928 73.792 209.344 210.176 209.344 366.08 0 235.136-190.656 425.856-425.92 425.856-235.456.384-426.176-190.272-426.176-425.6" fill="#fff"/></svg>