<svg class="icon" viewBox="0 0 1024 1024" xmlns="http://www.w3.org/2000/svg" width="200" height="200"><defs><style/></defs><path d="M640.5 984.5h-544c-48.5 0-88-39.5-88-88v-384c0-48.5 39.5-88 88-88h544c48.5 0 88 39.5 88 88v384c0 48.5-39.5 88-88 88zm-544-512c-22.1 0-40 17.9-40 40v384c0 22.1 17.9 40 40 40h544c22.1 0 40-17.9 40-40v-384c0-22.1-17.9-40-40-40h-544zM208.5 376.5c-92.6 0-168-75.4-168-168s75.4-168 168-168 168 75.4 168 168-75.4 168-168 168zm0-288c-66.2 0-120 53.8-120 120s53.8 120 120 120 120-53.8 120-120-53.8-120-120-120zm368 288c-66.2 0-120-53.8-120-120s53.8-120 120-120 120 53.8 120 120-53.8 120-120 120zm0-192c-39.7 0-72 32.3-72 72s32.3 72 72 72 72-32.3 72-72-32.3-72-72-72z" fill="#2c2c2c"/><path d="M992.5 952.5c-3.7 0-7.3-.8-10.7-2.5l-288-144c-11.9-5.9-16.7-20.3-10.7-32.2s20.3-16.7 32.2-10.7l253.2 126.6V519.3L715.2 646c-11.9 5.9-26.3 1.1-32.2-10.7s-1.1-26.3 10.7-32.2l288-144c7.4-3.7 16.3-3.3 23.4 1.1 7.1 4.4 11.4 12.1 11.4 20.4v448c0 8.3-4.3 16-11.4 20.4-3.8 2.3-8.2 3.5-12.6 3.5z" fill="#2c2c2c"/></svg>